<svg width="46" height="46" fill="none" xmlns="http://www.w3.org/2000/svg"><path d="M11.123 42.72a22.855 22.855 0 0011.796 3.271C35.57 45.991 46 35.668 46 23 46 10.341 35.587 0 22.92 0 10.286 0 .017 10.314.017 22.991c0 4.232 1.132 8.329 3.27 11.886L0 46l11.123-3.28zm-8.41-19.729c0-11.194 9.066-20.296 20.206-20.296 11.24 0 20.386 9.101 20.386 20.296 0 11.194-9.146 20.296-20.386 20.296a20.12 20.12 0 01-10.871-3.172l-.521-.332L3.98 42.01l2.228-7.547-.332-.521c-2.067-3.234-3.163-7.026-3.163-10.952z" fill="#fff"/></svg>